<svg id="visual" viewBox="0 0 900 600" width="900" height="600" xmlns="http://www.w3.org/2000/svg" xmlns:xlink="http://www.w3.org/1999/xlink" version="1.1"><rect x="0" y="0" width="900" height="600" fill="#FFFFFF"></rect><g transform="translate(-26.145094044271843 615.9644995866984)"><path d="M355 -549.8C469.1 -549.1 576.6 -472 641 -367.7C705.4 -263.3 726.7 -131.7 642.5 -48.6C558.2 34.4 368.4 68.8 287 143.7C205.6 218.6 232.5 334 202.8 355.5C173 377 86.5 304.5 -14.9 330.3C-116.3 356.2 -232.7 480.3 -351.7 510.4C-470.8 540.5 -592.6 476.5 -631.1 375.7C-669.6 275 -624.8 137.5 -569.1 32.2C-513.4 -73.2 -446.8 -146.3 -407.4 -245.5C-368 -344.7 -355.7 -469.8 -292.4 -499.7C-229 -529.6 -114.5 -464.3 3 -469.5C120.5 -474.7 241 -550.4 355 -549.8" fill="#F7770F"></path></g></svg>